<?xml version="1.0" encoding="UTF-8" standalone="no"?>
<!-- Generator: Adobe Illustrator 18.0.0, SVG Export Plug-In . SVG Version: 6.00 Build 0)  -->

<svg
   xmlns:dc="http://purl.org/dc/elements/1.1/"
   xmlns:cc="http://creativecommons.org/ns#"
   xmlns:rdf="http://www.w3.org/1999/02/22-rdf-syntax-ns#"
   xmlns:svg="http://www.w3.org/2000/svg"
   xmlns="http://www.w3.org/2000/svg"
   xmlns:sodipodi="http://sodipodi.sourceforge.net/DTD/sodipodi-0.dtd"
   xmlns:inkscape="http://www.inkscape.org/namespaces/inkscape"
   version="1.1"
   id="Layer_1"
   x="0px"
   y="0px"
   viewBox="0 0 595.3 595.3"
   enable-background="new 0 0 595.3 841.9"
   xml:space="preserve"
   inkscape:version="0.48.4 r9939"
   width="100%"
   height="100%"
   sodipodi:docname="news-icon.svg"><metadata
     id="metadata23"><rdf:RDF><cc:Work
         rdf:about=""><dc:format>image/svg+xml</dc:format><dc:type
           rdf:resource="http://purl.org/dc/dcmitype/StillImage" /></cc:Work></rdf:RDF></metadata><defs
     id="defs21" /><sodipodi:namedview
     pagecolor="#ffffff"
     bordercolor="#666666"
     borderopacity="1"
     objecttolerance="10"
     gridtolerance="10"
     guidetolerance="10"
     inkscape:pageopacity="0"
     inkscape:pageshadow="2"
     inkscape:window-width="1547"
     inkscape:window-height="876"
     id="namedview19"
     showgrid="false"
     inkscape:zoom="0.28031833"
     inkscape:cx="135.05057"
     inkscape:cy="189.85001"
     inkscape:window-x="53"
     inkscape:window-y="141"
     inkscape:window-maximized="1"
     inkscape:current-layer="Layer_1" /><g
     id="g3"
     style="fill:#000000"
     transform="matrix(1.6615978,0,0,1.509086,-196.75975,-341.23067)"><path
       d="m 323.5,403.5 -22,-66.2 c 6.9,-1.8 12,-8 12,-15.5 0,-8.8 -7.2,-15.9 -16,-15.9 -8.8,0 -15.9,7.2 -15.9,16 0,7.4 5.1,13.7 12,15.4 l -18.5,61.3 -21.7,56.7 c -0.1,0.2 -0.2,0.4 -0.2,0.6 l -53.2,139 c -2.3,6 0.7,12.8 6.7,15.1 1.4,0.5 2.8,0.8 4.2,0.8 4.7,0 9.1,-2.9 10.9,-7.5 l 8.7,-22.8 c 0.4,-0.2 0.8,-0.4 1.2,-0.7 l 66.4,-45.9 66.4,45.9 c 0.6,0.4 1.2,0.7 1.8,1 l 8.6,22.5 c 1.8,4.6 6.2,7.5 10.9,7.5 1.4,0 2.8,-0.3 4.2,-0.8 6,-2.3 9,-9 6.7,-15.1 L 323.5,403.5 z m -51.4,68.2 h 52.5 l 4.6,12.1 -31.1,21.5 -30.8,-21.3 4.8,-12.3 z m 34.9,-46.1 8.7,22.7 H 281 l 8.5,-22.3 17.5,-0.4 z m -61.8,116.3 13.6,-35.4 18.8,13 -32.4,22.4 z m 73.4,-22.4 19.2,-13.3 13.8,36.1 -33,-22.8 z"
       id="path5"
       style="fill:#000000"
       inkscape:connector-curvature="0" /><path
       d="m 210.5,411.8 c 3.3,0 6.2,-1.3 7.9,-3.6 3.6,-4.8 1.7,-12.4 -4.7,-18.6 -18.3,-17.7 -28.4,-41.5 -28.5,-67.1 -0.1,-25.8 10.1,-49.9 28.6,-67.7 6.4,-6.2 8.4,-13.9 4.8,-18.6 -1.8,-2.3 -4.6,-3.6 -8,-3.6 -3.8,0 -7.9,1.7 -11.2,4.8 -23.8,22.2 -36.9,52.5 -36.8,85.2 0.1,32.4 13.1,62.4 36.6,84.5 3.3,2.9 7.4,4.7 11.3,4.7 z"
       id="path7"
       style="fill:#000000"
       inkscape:connector-curvature="0" /><path
       d="m 225.5,382.6 c 3.2,3.2 7.3,5.1 11.2,5.1 h 0 c 3.3,0 6.1,-1.3 7.9,-3.6 3.6,-4.7 1.8,-12 -4.4,-18.7 -10.9,-11.7 -16.9,-26.9 -16.9,-43 0,-16.3 6,-31.8 17.1,-43.6 6.3,-6.7 8,-14 4.5,-18.7 -1.8,-2.3 -4.6,-3.7 -7.9,-3.7 -3.9,0 -8,1.8 -11.2,5 -16.2,16.2 -25.1,37.9 -25.1,60.9 0.1,22.9 8.9,44.2 24.8,60.3 z"
       id="path9"
       style="fill:#000000"
       inkscape:connector-curvature="0" /><path
       d="m 251.8,358 c 2.9,3.5 7.1,5.6 11.2,5.6 3.2,0 6,-1.3 7.8,-3.6 2.3,-3 3.6,-8.7 -3.5,-18.8 -3.9,-5.5 -5.9,-12.1 -5.9,-18.9 0,-7 2.1,-13.7 6.1,-19.4 7.2,-10 6,-15.7 3.7,-18.8 -1.7,-2.3 -4.6,-3.7 -7.9,-3.7 -4.1,0 -8.1,2 -11.1,5.5 -8.7,10.2 -13.4,23.1 -13.4,36.4 0,13.1 4.6,25.8 13,35.7 z"
       id="path11"
       style="fill:#000000"
       inkscape:connector-curvature="0" /><path
       d="m 395.5,237.2 c -3.3,-3 -7.3,-4.8 -11.2,-4.8 -3.3,0 -6.2,1.3 -8,3.6 -3.6,4.8 -1.7,12.4 4.8,18.6 18.5,17.8 28.7,41.8 28.6,67.7 -0.1,25.6 -10.2,49.4 -28.5,67.1 -6.4,6.2 -8.4,13.9 -4.7,18.6 1.8,2.3 4.6,3.6 7.9,3.6 3.9,0 7.9,-1.8 11.2,-4.8 23.5,-22.1 36.5,-52.1 36.6,-84.5 0.2,-32.6 -12.9,-62.8 -36.7,-85.1 z"
       id="path13"
       style="fill:#000000"
       inkscape:connector-curvature="0" /><path
       d="m 371.7,322.3 c 0,16.1 -6,31.3 -16.9,43 -6.2,6.7 -8,14 -4.4,18.7 1.8,2.3 4.6,3.6 7.9,3.6 3.9,0 8,-1.8 11.2,-5.1 15.9,-16.1 24.7,-37.5 24.8,-60.2 0,-23.1 -8.9,-44.7 -25.1,-60.9 -3.2,-3.2 -7.3,-5 -11.2,-5 -3.3,0 -6.2,1.3 -7.9,3.7 -3.5,4.7 -1.8,12 4.5,18.7 11.1,11.8 17.2,27.2 17.1,43.5 z"
       id="path15"
       style="fill:#000000"
       inkscape:connector-curvature="0" /><path
       d="m 333.7,322.3 c 0,6.8 -2.1,13.4 -5.9,18.9 -7,10.1 -5.8,15.8 -3.5,18.8 1.7,2.3 4.6,3.6 7.8,3.6 4.1,0 8.2,-2.1 11.2,-5.6 8.3,-9.9 12.9,-22.6 13,-35.7 0,-13.3 -4.7,-26.2 -13.4,-36.4 -3,-3.5 -7,-5.5 -11.1,-5.5 -3.3,0 -6.1,1.3 -7.9,3.7 -2.3,3 -3.5,8.8 3.7,18.8 3.9,5.6 6.1,12.3 6.1,19.4 z"
       id="path17"
       style="fill:#000000"
       inkscape:connector-curvature="0" /></g></svg>