<?xml version="1.0" encoding="UTF-8" standalone="no"?>
<!-- Generator: Adobe Illustrator 18.0.0, SVG Export Plug-In . SVG Version: 6.00 Build 0)  -->

<svg
   xmlns:dc="http://purl.org/dc/elements/1.1/"
   xmlns:cc="http://creativecommons.org/ns#"
   xmlns:rdf="http://www.w3.org/1999/02/22-rdf-syntax-ns#"
   xmlns:svg="http://www.w3.org/2000/svg"
   xmlns="http://www.w3.org/2000/svg"
   xmlns:sodipodi="http://sodipodi.sourceforge.net/DTD/sodipodi-0.dtd"
   xmlns:inkscape="http://www.inkscape.org/namespaces/inkscape"
   version="1.1"
   id="Layer_1"
   x="0px"
   y="0px"
   viewBox="0 0 595.3 595.3"
   enable-background="new 0 0 595.3 841.9"
   xml:space="preserve"
   inkscape:version="0.48.4 r9939"
   width="100%"
   height="100%"
   sodipodi:docname="who-can-use-icon.svg"><metadata
     id="metadata15"><rdf:RDF><cc:Work
         rdf:about=""><dc:format>image/svg+xml</dc:format><dc:type
           rdf:resource="http://purl.org/dc/dcmitype/StillImage" /></cc:Work></rdf:RDF></metadata><defs
     id="defs13" /><sodipodi:namedview
     pagecolor="#ffffff"
     bordercolor="#666666"
     borderopacity="1"
     objecttolerance="10"
     gridtolerance="10"
     guidetolerance="10"
     inkscape:pageopacity="0"
     inkscape:pageshadow="2"
     inkscape:window-width="640"
     inkscape:window-height="480"
     id="namedview11"
     showgrid="false"
     inkscape:zoom="0.28031833"
     inkscape:cx="297.65"
     inkscape:cy="420.95"
     inkscape:window-x="53"
     inkscape:window-y="141"
     inkscape:window-maximized="0"
     inkscape:current-layer="Layer_1" /><g
     id="g3"
     style="fill:#000000"
     transform="translate(4.0000001,-122.60001)"><rect
       x="262.79999"
       y="395.20001"
       width="52.5"
       height="214.7"
       id="rect5"
       style="fill:#000000" /><path
       d="m 316.9,247.8 c 0,-8.2 -6.7,-14.9 -14.9,-14.9 h -24.2 c -8.2,0 -14.9,6.7 -14.9,14.9 v 6 H 317 v -6 z"
       id="path7"
       style="fill:#000000"
       inkscape:connector-curvature="0" /><path
       d="m 490,316.1 -83.7,-48.8 c -7.3,-4.2 -20.1,-7.7 -28.5,-7.7 H 188.2 c -8.4,0 -15.3,6.9 -15.3,15.3 v 97.8 c 0,8.4 6.9,15.3 15.3,15.3 h 189.6 c 8.4,0 21.2,-3.5 28.5,-7.7 L 490,331.5 c 7.2,-4.2 7.2,-11.1 0,-15.4 z"
       id="path9"
       style="fill:#000000"
       inkscape:connector-curvature="0" /></g></svg>