<?xml version="1.0" encoding="UTF-8" standalone="no"?>
<!-- Generator: Adobe Illustrator 18.0.0, SVG Export Plug-In . SVG Version: 6.00 Build 0)  -->

<svg
   xmlns:dc="http://purl.org/dc/elements/1.1/"
   xmlns:cc="http://creativecommons.org/ns#"
   xmlns:rdf="http://www.w3.org/1999/02/22-rdf-syntax-ns#"
   xmlns:svg="http://www.w3.org/2000/svg"
   xmlns="http://www.w3.org/2000/svg"
   xmlns:sodipodi="http://sodipodi.sourceforge.net/DTD/sodipodi-0.dtd"
   xmlns:inkscape="http://www.inkscape.org/namespaces/inkscape"
   version="1.1"
   id="Layer_1"
   x="0px"
   y="0px"
   viewBox="0 0 200 200"
   enable-background="new 0 0 200 200"
   xml:space="preserve"
   inkscape:version="0.48.4 r9939"
   width="100%"
   height="100%"
   sodipodi:docname="timeline-icon.svg"><metadata
     id="metadata17"><rdf:RDF><cc:Work
         rdf:about=""><dc:format>image/svg+xml</dc:format><dc:type
           rdf:resource="http://purl.org/dc/dcmitype/StillImage" /></cc:Work></rdf:RDF></metadata><defs
     id="defs15" /><sodipodi:namedview
     pagecolor="#ffffff"
     bordercolor="#666666"
     borderopacity="1"
     objecttolerance="10"
     gridtolerance="10"
     guidetolerance="10"
     inkscape:pageopacity="0"
     inkscape:pageshadow="2"
     inkscape:window-width="1547"
     inkscape:window-height="876"
     id="namedview13"
     showgrid="false"
     inkscape:zoom="1.18"
     inkscape:cx="-49.152542"
     inkscape:cy="100"
     inkscape:window-x="53"
     inkscape:window-y="141"
     inkscape:window-maximized="1"
     inkscape:current-layer="Layer_1" /><path
     style="font-size:medium;font-style:normal;font-variant:normal;font-weight:normal;font-stretch:normal;text-indent:0;text-align:start;text-decoration:none;line-height:normal;letter-spacing:normal;word-spacing:normal;text-transform:none;direction:ltr;block-progression:tb;writing-mode:lr-tb;text-anchor:start;baseline-shift:baseline;color:#000000;fill:#000000;fill-opacity:1;stroke:none;stroke-width:5;marker:none;visibility:visible;display:inline;overflow:visible;enable-background:accumulate;font-family:Sans;-inkscape-font-specification:Sans"
     d="m 100.90625,17.3125 c -45.949028,0 -83.21875,37.238472 -83.21875,83.1875 0,45.94903 37.269722,83.1875 83.21875,83.1875 45.94903,0 83.1875,-37.23847 83.1875,-83.1875 0,-45.952765 -37.33544,-83.1875 -83.1875,-83.1875 z m 0,5 c 43.14794,0 78.1875,34.940265 78.1875,78.1875 0,43.25097 -34.93653,78.1875 -78.1875,78.1875 -43.250972,0 -78.21875,-34.93653 -78.21875,-78.1875 0,-43.250972 34.967778,-78.1875 78.21875,-78.1875 z"
     id="path6"
     inkscape:connector-curvature="0" /><g
     id="Hands_3_"
     style="fill:#000000"><g
       id="g9"
       style="fill:#000000"><path
         fill="#FFFFFF"
         d="M108.5,99.9L96.4,42l-10.6,63.4c0,7.7,2.9,15.4,15.4,15.4l55-12.4L108.5,99.9z M97.3,113.1    c-2.1,0-3.8-1.7-3.8-3.8c0-2.1,1.7-3.8,3.8-3.8c2.1,0,3.8,1.7,3.8,3.8C101.2,111.4,99.5,113.1,97.3,113.1z"
         id="path11"
         style="fill:#000000" /></g></g></svg>